<svg width="1400" height="520" viewBox="0 0 1400 520" fill="none" xmlns="http://www.w3.org/2000/svg" role="img" aria-label="KHAAD BHARAT logo vector">
  <defs>
    <linearGradient id="bg" x1="0" y1="0" x2="1400" y2="520" gradientUnits="userSpaceOnUse">
      <stop stop-color="#FBF5E7"/>
      <stop offset="1" stop-color="#EFE0B8"/>
    </linearGradient>
    <linearGradient id="leaf" x1="180" y1="74" x2="420" y2="288" gradientUnits="userSpaceOnUse">
      <stop stop-color="#8FBD36"/>
      <stop offset="1" stop-color="#406A29"/>
    </linearGradient>
    <linearGradient id="leaf2" x1="300" y1="60" x2="500" y2="242" gradientUnits="userSpaceOnUse">
      <stop stop-color="#D3EA72"/>
      <stop offset="1" stop-color="#83B52C"/>
    </linearGradient>
    <linearGradient id="trunk" x1="340" y1="170" x2="430" y2="380" gradientUnits="userSpaceOnUse">
      <stop stop-color="#4A3424"/>
      <stop offset="1" stop-color="#1D2618"/>
    </linearGradient>
  </defs>
  <rect width="1400" height="520" rx="42" fill="url(#bg)"/>
  <g transform="translate(42 36)">
    <circle cx="224" cy="224" r="182" fill="#FFF4C2" fill-opacity="0.72"/>
    <path d="M215 120C191 92 167 74 132 58C111 48 95 50 86 56C108 74 123 102 132 132C139 157 140 184 136 213C161 185 187 154 215 120Z" fill="url(#leaf2)"/>
    <path d="M228 116C252 88 279 71 314 56C335 47 351 49 360 55C338 73 323 101 314 131C307 156 306 183 310 213C285 185 257 154 228 116Z" fill="url(#leaf)"/>
    <path d="M148 214C121 200 95 197 72 202C58 205 50 212 46 218C68 222 89 230 108 241C129 253 147 269 161 290C166 263 162 236 148 214Z" fill="url(#leaf)"/>
    <path d="M297 214C324 200 350 197 373 202C387 205 395 212 399 218C377 222 356 230 337 241C316 253 298 269 284 290C279 263 283 236 297 214Z" fill="url(#leaf2)"/>
    <path d="M181 236C187 278 188 311 182 342C176 371 164 391 150 404C170 410 193 407 208 395C219 386 227 372 231 356C236 334 236 305 232 269C228 231 222 188 215 138C203 170 192 201 181 236Z" fill="url(#trunk)"/>
    <path d="M249 236C243 278 242 311 248 342C254 371 266 391 280 404C260 410 237 407 222 395C211 386 203 372 199 356C194 334 194 305 198 269C202 231 208 188 215 138C227 170 238 201 249 236Z" fill="#24301E"/>
  </g>
  <g transform="translate(540 118)">
    <text x="0" y="110" font-size="86" font-family="Georgia, serif" font-weight="700" fill="#21311C" letter-spacing="4">KHAAD BHARAT</text>
    <text x="0" y="170" font-size="28" font-family="Trebuchet MS, sans-serif" fill="#5E6B58" letter-spacing="2">BIOCHAR FOR BHARAT AND BEYOND</text>
    <rect x="0" y="210" width="530" height="1.5" rx="1" fill="#C98A1F" fill-opacity="0.7"/>
    <text x="0" y="260" font-size="26" font-family="Trebuchet MS, sans-serif" fill="#385629">Farmer-first brand foundation for organic growth</text>
  </g>
</svg>
